<svg width="1853" height="1829" xmlns="http://www.w3.org/2000/svg" xmlns:xlink="http://www.w3.org/1999/xlink" xml:space="preserve" overflow="hidden"><defs><filter id="fx0" x="-10%" y="-10%" width="120%" height="120%" filterUnits="userSpaceOnUse" primitiveUnits="userSpaceOnUse"><feComponentTransfer color-interpolation-filters="sRGB"><feFuncR type="discrete" tableValues="0 0"/><feFuncG type="discrete" tableValues="0 0"/><feFuncB type="discrete" tableValues="0 0"/><feFuncA type="linear" slope="0.4" intercept="0"/></feComponentTransfer><feGaussianBlur stdDeviation="7.63889 7.63889"/></filter><filter id="fx1" x="-10%" y="-10%" width="120%" height="120%" filterUnits="userSpaceOnUse" primitiveUnits="userSpaceOnUse"><feComponentTransfer color-interpolation-filters="sRGB"><feFuncR type="discrete" tableValues="0 0"/><feFuncG type="discrete" tableValues="0 0"/><feFuncB type="discrete" tableValues="0 0"/><feFuncA type="linear" slope="0.4" intercept="0"/></feComponentTransfer><feGaussianBlur stdDeviation="4.58333 4.58333"/></filter><filter id="fx2" x="-10%" y="-10%" width="120%" height="120%" filterUnits="userSpaceOnUse" primitiveUnits="userSpaceOnUse"><feComponentTransfer color-interpolation-filters="sRGB"><feFuncR type="discrete" tableValues="0 0"/><feFuncG type="discrete" tableValues="0 0"/><feFuncB type="discrete" tableValues="0 0"/><feFuncA type="linear" slope="0.4" intercept="0"/></feComponentTransfer><feGaussianBlur stdDeviation="4.58333 4.58333"/></filter><filter id="fx3" x="-10%" y="-10%" width="120%" height="120%" filterUnits="userSpaceOnUse" primitiveUnits="userSpaceOnUse"><feComponentTransfer color-interpolation-filters="sRGB"><feFuncR type="discrete" tableValues="0 0"/><feFuncG type="discrete" tableValues="0 0"/><feFuncB type="discrete" tableValues="0 0"/><feFuncA type="linear" slope="0.4" intercept="0"/></feComponentTransfer><feGaussianBlur stdDeviation="4.58333 4.58333"/></filter><filter id="fx4" x="-10%" y="-10%" width="120%" height="120%" filterUnits="userSpaceOnUse" primitiveUnits="userSpaceOnUse"><feComponentTransfer color-interpolation-filters="sRGB"><feFuncR type="discrete" tableValues="0 0"/><feFuncG type="discrete" tableValues="0 0"/><feFuncB type="discrete" tableValues="0 0"/><feFuncA type="linear" slope="0.4" intercept="0"/></feComponentTransfer><feGaussianBlur stdDeviation="4.58333 4.58333"/></filter><filter id="fx5" x="-10%" y="-10%" width="120%" height="120%" filterUnits="userSpaceOnUse" primitiveUnits="userSpaceOnUse"><feComponentTransfer color-interpolation-filters="sRGB"><feFuncR type="discrete" tableValues="0 0"/><feFuncG type="discrete" tableValues="0 0"/><feFuncB type="discrete" tableValues="0 0"/><feFuncA type="linear" slope="0.4" intercept="0"/></feComponentTransfer><feGaussianBlur stdDeviation="4.58333 4.58333"/></filter><filter id="fx6" x="-10%" y="-10%" width="120%" height="120%" filterUnits="userSpaceOnUse" primitiveUnits="userSpaceOnUse"><feComponentTransfer color-interpolation-filters="sRGB"><feFuncR type="discrete" tableValues="0 0"/><feFuncG type="discrete" tableValues="0 0"/><feFuncB type="discrete" tableValues="0 0"/><feFuncA type="linear" slope="0.4" intercept="0"/></feComponentTransfer><feGaussianBlur stdDeviation="4.58333 4.58333"/></filter><filter id="fx7" x="-10%" y="-10%" width="120%" height="120%" filterUnits="userSpaceOnUse" primitiveUnits="userSpaceOnUse"><feComponentTransfer color-interpolation-filters="sRGB"><feFuncR type="discrete" tableValues="0 0"/><feFuncG type="discrete" tableValues="0 0"/><feFuncB type="discrete" tableValues="0 0"/><feFuncA type="linear" slope="0.4" intercept="0"/></feComponentTransfer><feGaussianBlur stdDeviation="4.58333 4.58333"/></filter><filter id="fx8" x="-10%" y="-10%" width="120%" height="120%" filterUnits="userSpaceOnUse" primitiveUnits="userSpaceOnUse"><feComponentTransfer color-interpolation-filters="sRGB"><feFuncR type="discrete" tableValues="0 0"/><feFuncG type="discrete" tableValues="0 0"/><feFuncB type="discrete" tableValues="0 0"/><feFuncA type="linear" slope="0.4" intercept="0"/></feComponentTransfer><feGaussianBlur stdDeviation="4.58333 4.58333"/></filter><filter id="fx9" x="-10%" y="-10%" width="120%" height="120%" filterUnits="userSpaceOnUse" primitiveUnits="userSpaceOnUse"><feComponentTransfer color-interpolation-filters="sRGB"><feFuncR type="discrete" tableValues="0 0"/><feFuncG type="discrete" tableValues="0 0"/><feFuncB type="discrete" tableValues="0 0"/><feFuncA type="linear" slope="0.4" intercept="0"/></feComponentTransfer><feGaussianBlur stdDeviation="4.58333 4.58333"/></filter><filter id="fx10" x="-10%" y="-10%" width="120%" height="120%" filterUnits="userSpaceOnUse" primitiveUnits="userSpaceOnUse"><feComponentTransfer color-interpolation-filters="sRGB"><feFuncR type="discrete" tableValues="0 0"/><feFuncG type="discrete" tableValues="0 0"/><feFuncB type="discrete" tableValues="0 0"/><feFuncA type="linear" slope="0.4" intercept="0"/></feComponentTransfer><feGaussianBlur stdDeviation="4.58333 4.58333"/></filter><filter id="fx11" x="-10%" y="-10%" width="120%" height="120%" filterUnits="userSpaceOnUse" primitiveUnits="userSpaceOnUse"><feComponentTransfer color-interpolation-filters="sRGB"><feFuncR type="discrete" tableValues="0 0"/><feFuncG type="discrete" tableValues="0 0"/><feFuncB type="discrete" tableValues="0 0"/><feFuncA type="linear" slope="0.4" intercept="0"/></feComponentTransfer><feGaussianBlur stdDeviation="4.58333 4.58333"/></filter><filter id="fx12" x="-10%" y="-10%" width="120%" height="120%" filterUnits="userSpaceOnUse" primitiveUnits="userSpaceOnUse"><feComponentTransfer color-interpolation-filters="sRGB"><feFuncR type="discrete" tableValues="0 0"/><feFuncG type="discrete" tableValues="0 0"/><feFuncB type="discrete" tableValues="0 0"/><feFuncA type="linear" slope="0.4" intercept="0"/></feComponentTransfer><feGaussianBlur stdDeviation="4.58333 4.58333"/></filter><filter id="fx13" x="-10%" y="-10%" width="120%" height="120%" filterUnits="userSpaceOnUse" primitiveUnits="userSpaceOnUse"><feComponentTransfer color-interpolation-filters="sRGB"><feFuncR type="discrete" tableValues="0 0"/><feFuncG type="discrete" tableValues="0 0"/><feFuncB type="discrete" tableValues="0 0"/><feFuncA type="linear" slope="0.4" intercept="0"/></feComponentTransfer><feGaussianBlur stdDeviation="4.58333 4.58333"/></filter><filter id="fx14" x="-10%" y="-10%" width="120%" height="120%" filterUnits="userSpaceOnUse" primitiveUnits="userSpaceOnUse"><feComponentTransfer color-interpolation-filters="sRGB"><feFuncR type="discrete" tableValues="0 0"/><feFuncG type="discrete" tableValues="0 0"/><feFuncB type="discrete" tableValues="0 0"/><feFuncA type="linear" slope="0.4" intercept="0"/></feComponentTransfer><feGaussianBlur stdDeviation="4.58333 4.58333"/></filter><filter id="fx15" x="-10%" y="-10%" width="120%" height="120%" filterUnits="userSpaceOnUse" primitiveUnits="userSpaceOnUse"><feComponentTransfer color-interpolation-filters="sRGB"><feFuncR type="discrete" tableValues="0 0"/><feFuncG type="discrete" tableValues="0 0"/><feFuncB type="discrete" tableValues="0 0"/><feFuncA type="linear" slope="0.4" intercept="0"/></feComponentTransfer><feGaussianBlur stdDeviation="4.58333 4.58333"/></filter><filter id="fx16" x="-10%" y="-10%" width="120%" height="120%" filterUnits="userSpaceOnUse" primitiveUnits="userSpaceOnUse"><feComponentTransfer color-interpolation-filters="sRGB"><feFuncR type="discrete" tableValues="0 0"/><feFuncG type="discrete" tableValues="0 0"/><feFuncB type="discrete" tableValues="0 0"/><feFuncA type="linear" slope="0.4" intercept="0"/></feComponentTransfer><feGaussianBlur stdDeviation="4.58333 4.58333"/></filter><filter id="fx17" x="-10%" y="-10%" width="120%" height="120%" filterUnits="userSpaceOnUse" primitiveUnits="userSpaceOnUse"><feComponentTransfer color-interpolation-filters="sRGB"><feFuncR type="discrete" tableValues="0 0"/><feFuncG type="discrete" tableValues="0 0"/><feFuncB type="discrete" tableValues="0 0"/><feFuncA type="linear" slope="0.4" intercept="0"/></feComponentTransfer><feGaussianBlur stdDeviation="7.63889 7.63889"/></filter><filter id="fx18" x="-10%" y="-10%" width="120%" height="120%" filterUnits="userSpaceOnUse" primitiveUnits="userSpaceOnUse"><feComponentTransfer color-interpolation-filters="sRGB"><feFuncR type="discrete" tableValues="0 0"/><feFuncG type="discrete" tableValues="0 0"/><feFuncB type="discrete" tableValues="0 0"/><feFuncA type="linear" slope="0.4" intercept="0"/></feComponentTransfer><feGaussianBlur stdDeviation="7.63889 7.63889"/></filter><filter id="fx19" x="-10%" y="-10%" width="120%" height="120%" filterUnits="userSpaceOnUse" primitiveUnits="userSpaceOnUse"><feComponentTransfer color-interpolation-filters="sRGB"><feFuncR type="discrete" tableValues="0 0"/><feFuncG type="discrete" tableValues="0 0"/><feFuncB type="discrete" tableValues="0 0"/><feFuncA type="linear" slope="0.4" intercept="0"/></feComponentTransfer><feGaussianBlur stdDeviation="7.63889 7.63889"/></filter><filter id="fx20" x="-10%" y="-10%" width="120%" height="120%" filterUnits="userSpaceOnUse" primitiveUnits="userSpaceOnUse"><feComponentTransfer color-interpolation-filters="sRGB"><feFuncR type="discrete" tableValues="0 0"/><feFuncG type="discrete" tableValues="0 0"/><feFuncB type="discrete" tableValues="0 0"/><feFuncA type="linear" slope="0.4" intercept="0"/></feComponentTransfer><feGaussianBlur stdDeviation="7.63889 7.63889"/></filter><clipPath id="clip21"><rect x="1274" y="320" width="1853" height="1829"/></clipPath><clipPath id="clip22"><path d="M2200.5 354.5C1712.83 354.5 1317.5 750.056 1317.5 1238L1587.2 1238C1587.2 900.35 1859.7 626.102 2197.07 624.213 2535.78 622.315 2811.89 895.579 2813.79 1234.56L3083.49 1233.05C3080.77 747.048 2686.24 354.5 2200.5 354.5ZM1274 320 3127 320 3127 2149 1274 2149Z" fill-rule="evenodd" clip-rule="evenodd"/></clipPath><clipPath id="clip23"><rect x="-7" y="-7" width="1869" height="970"/></clipPath><clipPath id="clip24"><rect x="0" y="0" width="1853" height="954"/></clipPath><clipPath id="clip25"><rect x="-2" y="-2" width="224" height="180"/></clipPath><clipPath id="clip26"><rect x="0" y="0" width="220" height="176"/></clipPath><clipPath id="clip27"><rect x="-2" y="-2" width="239" height="162"/></clipPath><clipPath id="clip28"><rect x="0" y="0" width="236" height="159"/></clipPath><clipPath id="clip29"><rect x="-2" y="-2" width="221" height="239"/></clipPath><clipPath id="clip30"><rect x="0" y="0" width="219" height="233"/></clipPath><clipPath id="clip31"><rect x="-2" y="-2" width="204" height="218"/></clipPath><clipPath id="clip32"><rect x="0" y="0" width="200" height="214"/></clipPath><clipPath id="clip33"><rect x="-2" y="-2" width="174" height="213"/></clipPath><clipPath id="clip34"><rect x="0" y="0" width="169" height="208"/></clipPath><clipPath id="clip35"><rect x="-2" y="-2" width="192" height="224"/></clipPath><clipPath id="clip36"><rect x="0" y="0" width="189" height="222"/></clipPath><clipPath id="clip37"><rect x="-2" y="-2" width="263" height="260"/></clipPath><clipPath id="clip38"><rect x="0" y="0" width="258" height="256"/></clipPath><clipPath id="clip39"><rect x="-2" y="-2" width="236" height="218"/></clipPath><clipPath id="clip40"><rect x="0" y="0" width="233" height="213"/></clipPath><clipPath id="clip41"><rect x="-2" y="-2" width="224" height="180"/></clipPath><clipPath id="clip42"><rect x="0" y="0" width="220" height="177"/></clipPath><clipPath id="clip43"><rect x="-2" y="-2" width="186" height="230"/></clipPath><clipPath id="clip44"><rect x="0" y="0" width="181" height="227"/></clipPath><clipPath id="clip45"><rect x="-2" y="-2" width="218" height="239"/></clipPath><clipPath id="clip46"><rect x="0" y="0" width="215" height="236"/></clipPath><clipPath id="clip47"><rect x="-2" y="-2" width="189" height="227"/></clipPath><clipPath id="clip48"><rect x="0" y="0" width="185" height="224"/></clipPath><clipPath id="clip49"><rect x="-2" y="-2" width="174" height="213"/></clipPath><clipPath id="clip50"><rect x="0" y="0" width="169" height="208"/></clipPath><clipPath id="clip51"><rect x="-2" y="-2" width="192" height="227"/></clipPath><clipPath id="clip52"><rect x="0" y="0" width="189" height="222"/></clipPath><clipPath id="clip53"><rect x="-2" y="-2" width="263" height="260"/></clipPath><clipPath id="clip54"><rect x="0" y="0" width="257" height="256"/></clipPath><clipPath id="clip55"><rect x="-2" y="-2" width="236" height="218"/></clipPath><clipPath id="clip56"><rect x="0" y="0" width="233" height="213"/></clipPath><clipPath id="clip57"><path d="M2200.5 671.28C2513.77 671.28 2767.72 925.009 2767.72 1238 2767.72 1550.99 2513.77 1804.72 2200.5 1804.72 1887.23 1804.72 1633.28 1550.99 1633.28 1238 1633.28 925.009 1887.23 671.28 2200.5 671.28ZM2200.5 653.5C1877.41 653.5 1615.5 915.19 1615.5 1238 1615.5 1560.81 1877.41 1822.5 2200.5 1822.5 2523.59 1822.5 2785.5 1560.81 2785.5 1238 2785.5 915.19 2523.59 653.5 2200.5 653.5ZM1274 320 3127 320 3127 2149 1274 2149Z" fill-rule="evenodd" clip-rule="evenodd"/></clipPath><clipPath id="clip58"><rect x="-7" y="-7" width="1260" height="1260"/></clipPath><clipPath id="clip59"><rect x="0" y="0" width="1247" height="1246"/></clipPath><clipPath id="clip60"><path d="M2200.5 702.291C2496.09 702.291 2735.71 942.136 2735.71 1238 2735.71 1533.86 2496.09 1773.71 2200.5 1773.71 1904.91 1773.71 1665.29 1533.86 1665.29 1238 1665.29 942.136 1904.91 702.291 2200.5 702.291ZM2200.5 685.5C1895.64 685.5 1648.5 932.863 1648.5 1238 1648.5 1543.14 1895.64 1790.5 2200.5 1790.5 2505.36 1790.5 2752.5 1543.14 2752.5 1238 2752.5 932.863 2505.36 685.5 2200.5 685.5ZM1274 320 3127 320 3127 2149 1274 2149Z" fill-rule="evenodd" clip-rule="evenodd"/></clipPath><clipPath id="clip61"><rect x="-7" y="-7" width="1194" height="1194"/></clipPath><clipPath id="clip62"><rect x="0" y="0" width="1179" height="1180"/></clipPath><clipPath id="clip63"><path d="M1868.5 891.5 1868.5 1307.5 2532.5 1099.5ZM1274 320 3127 320 3127 2149 1274 2149Z" fill-rule="evenodd" clip-rule="evenodd"/></clipPath><clipPath id="clip64"><rect x="-7" y="-7" width="750" height="495"/></clipPath><clipPath id="clip65"><rect x="0" y="0" width="736" height="479"/></clipPath><clipPath id="clip66"><path d="M2532.5 1168.5 1868.5 1376.5 2532.5 1584.5ZM1274 320 3127 320 3127 2149 1274 2149Z" fill-rule="evenodd" clip-rule="evenodd"/></clipPath><clipPath id="clip67"><rect x="-7" y="-7" width="750" height="495"/></clipPath><clipPath id="clip68"><rect x="0" y="0" width="736" height="479"/></clipPath></defs><g clip-path="url(#clip21)" transform="translate(-1274 -320)"><path d="M1291.5 1237.5C1291.5 735.473 1698.47 328.5 2200.5 328.5 2702.53 328.5 3109.5 735.473 3109.5 1237.5 3109.5 1739.53 2702.53 2146.5 2200.5 2146.5 1698.47 2146.5 1291.5 1739.53 1291.5 1237.5Z" stroke="#00BFB2" stroke-width="4.58333" stroke-miterlimit="8" fill="#00BFB2" fill-rule="evenodd"/><g clip-path="url(#clip22)"><g clip-path="url(#clip23)" filter="url(#fx0)" transform="translate(1274 319)"><g clip-path="url(#clip24)"><path d="M25.8401 927.835C25.8401 430.132 429.079 26.6649 926.5 26.6649 1421.95 26.6649 1824.37 427.064 1827.15 922.79L1552.05 924.33C1550.12 578.565 1268.48 299.836 922.998 301.772 578.882 303.7 300.937 583.432 300.937 927.835Z" stroke="#1A5363" stroke-width="5" stroke-miterlimit="8" fill="#1A5363" fill-rule="evenodd"/></g></g></g><path d="M1317.5 1238C1317.5 750.056 1712.83 354.5 2200.5 354.5 2686.24 354.5 3080.77 747.048 3083.49 1233.05L2813.79 1234.56C2811.89 895.579 2535.78 622.315 2197.07 624.213 1859.7 626.103 1587.2 900.35 1587.2 1238Z" stroke="#1A5363" stroke-width="4.58333" stroke-miterlimit="8" fill="#1A5363" fill-rule="evenodd"/><g clip-path="url(#clip25)" filter="url(#fx1)" transform="translate(1378 912)"><g clip-path="url(#clip26)"><path d="M53.5104 44.5163 103.734 84.9368 117.99 43.756ZM15.4772 43.7478 23.1425 21.6055 204.364 15.2395 195.308 41.4012 143.343 44.5076 124.115 100.049 163.032 134.634 153.99 160.753Z" stroke="#1A5363" stroke-linejoin="round" stroke-miterlimit="10" fill="#00BFB2" fill-rule="evenodd"/></g></g><path d="M1426.65 961.378 1476.87 1001.8 1491.13 960.617ZM1388.62 960.609 1396.28 938.467 1577.5 932.101 1568.45 958.263 1516.48 961.369 1497.25 1016.91 1536.17 1051.5 1527.13 1077.61Z" stroke="#1A5363" stroke-linejoin="round" stroke-miterlimit="10" fill="#00BFB2" fill-rule="evenodd"/><text fill="#000000" fill-opacity="0" font-family="Arial,Arial_MSFontService,sans-serif" font-size="145.513" x="1388.62" y="1059.42">A</text><g clip-path="url(#clip27)" filter="url(#fx2)" transform="translate(1496 692)"><g clip-path="url(#clip28)"><path d="M15.6964 37.7946 33.9203 15.175 146.346 105.753 201.169 37.7065 220.017 52.8916 146.969 143.558Z" stroke="#1A5363" stroke-linejoin="round" stroke-miterlimit="10" fill="#00BFB2" fill-rule="evenodd"/></g></g><path d="M1506.83 734.656 1525.06 712.036 1637.48 802.615 1692.31 734.568 1711.16 749.753 1638.11 840.419Z" stroke="#1A5363" stroke-linejoin="round" stroke-miterlimit="10" fill="#00BFB2" fill-rule="evenodd"/><text fill="#000000" fill-opacity="0" font-family="Arial,Arial_MSFontService,sans-serif" font-size="128.383" x="1506.83" y="824.371">L</text><g clip-path="url(#clip29)" filter="url(#fx3)" transform="translate(1694 459)"><g clip-path="url(#clip30)"><path d="M15.0364 75.0311 109.597 15.6136 122.474 36.1074 52.5086 80.0704 76.0162 117.482 141.163 76.547 154.04 97.0406 88.8935 137.976 116.444 181.821 190.434 135.329 203.311 155.823 104.726 217.769Z" stroke="#1A5363" stroke-linejoin="round" stroke-miterlimit="10" fill="#00BFB2" fill-rule="evenodd"/></g></g><path d="M1704.18 538.892 1798.74 479.475 1811.61 499.969 1741.65 543.932 1765.15 581.343 1830.3 540.408 1843.18 560.902 1778.03 601.837 1805.58 645.682 1879.57 599.191 1892.45 619.684 1793.86 681.63Z" stroke="#1A5363" stroke-linejoin="round" stroke-miterlimit="10" fill="#00BFB2" fill-rule="evenodd"/><text fill="#000000" fill-opacity="0" font-family="Arial,Arial_MSFontService,sans-serif" font-size="202.156" x="1704.18" y="656.361">E</text><g clip-path="url(#clip31)" filter="url(#fx4)" transform="translate(1957 372)"><g clip-path="url(#clip32)"><path d="M49.3177 52.1957 59.801 100.957 111.744 89.7897C116.953 88.6698 121.11 85.7064 124.216 80.8998 127.198 76.2849 127.728 69.5083 125.806 60.5699 124.122 52.7366 120.583 47.0773 115.189 43.5922 110.136 40.973 104.566 40.3179 98.4786 41.6265ZM15.8319 34.6382 98.038 16.9646C111.376 14.0969 123.163 15.9651 133.398 22.5692 143.852 29.3324 150.645 39.9949 153.775 54.5568 157.01 69.6019 155.251 82.3508 148.497 92.8032 144.749 98.6049 139.456 102.741 132.617 105.213L184.323 169.496 156.458 175.487 108.529 115.237 64.8884 124.62 79.3868 192.057 50.9883 198.162Z" stroke="#1A5363" stroke-linejoin="round" stroke-miterlimit="10" fill="#00BFB2" fill-rule="evenodd"/></g></g><path d="M2001.46 429.057 2011.94 477.818 2063.88 466.651C2069.09 465.531 2073.25 462.568 2076.35 457.761 2079.34 453.146 2079.87 446.37 2077.94 437.431 2076.26 429.598 2072.72 423.939 2067.33 420.453 2062.27 417.834 2056.7 417.179 2050.62 418.488ZM1967.97 411.5 2050.18 393.826C2063.52 390.958 2075.3 392.826 2085.54 399.431 2095.99 406.194 2102.78 416.856 2105.91 431.418 2109.15 446.463 2107.39 459.212 2100.64 469.665 2096.89 475.466 2091.59 479.603 2084.76 482.074L2136.46 546.358 2108.6 552.349 2060.67 492.099 2017.03 501.481 2031.53 568.918 2003.13 575.024Z" stroke="#1A5363" stroke-linejoin="round" stroke-miterlimit="10" fill="#00BFB2" fill-rule="evenodd"/><text fill="#000000" fill-opacity="0" font-family="Arial,Arial_MSFontService,sans-serif" font-size="182.5" x="1967.97" y="552.211">R</text><g clip-path="url(#clip33)" filter="url(#fx5)" transform="translate(2245 362)"><g clip-path="url(#clip34)"><path d="M19.2169 15.3348 153.861 34.0836 150.523 58.056 96.896 50.5886 77.1639 192.294 48.3942 188.288 68.1262 46.5825 15.8788 39.3073Z" stroke="#1A5363" stroke-linejoin="round" stroke-miterlimit="10" fill="#00BFB2" fill-rule="evenodd"/></g></g><path d="M2259.36 382.196 2394 400.945 2390.66 424.917 2337.03 417.45 2317.3 559.155 2288.53 555.149 2308.26 413.444 2256.02 406.169Z" stroke="#1A5363" stroke-linejoin="round" stroke-miterlimit="10" fill="#00BFB2" fill-rule="evenodd"/><text fill="#000000" fill-opacity="0" font-family="Arial,Arial_MSFontService,sans-serif" font-size="176.959" x="2256.02" y="537.035">T</text><g clip-path="url(#clip35)" filter="url(#fx6)" transform="translate(2454 460)"><g clip-path="url(#clip36)"><path d="M145.86 52.7881 97.9646 95.9418 136.353 116.568ZM152.669 15.3615 173.31 26.4517 150.766 206.378 126.378 193.275 131.578 141.478 79.8021 113.659 39.4673 146.579 15.1195 133.497Z" stroke="#1A5363" stroke-linejoin="round" stroke-miterlimit="10" fill="#00BFB2" fill-rule="evenodd"/></g></g><path d="M2595 517.649 2547.1 560.803 2585.49 581.429ZM2601.81 480.223 2622.45 491.313 2599.9 671.24 2575.52 658.136 2580.72 606.339 2528.94 578.521 2488.61 611.44 2464.26 598.358Z" stroke="#1A5363" stroke-linejoin="round" stroke-miterlimit="10" fill="#00BFB2" fill-rule="evenodd"/><text fill="#000000" fill-opacity="0" font-family="Arial,Arial_MSFontService,sans-serif" font-size="191.017" x="2464.26" y="647.363">A</text><g clip-path="url(#clip37)" filter="url(#fx7)" transform="translate(2670 612)"><g clip-path="url(#clip38)"><path d="M143.411 15.738 166.652 43.2441 97.6143 155.776 220.09 106.489 242.462 132.966 114.689 240.926 95.9421 218.738 190.994 138.425 71.8414 190.215 59.3466 175.427 129.438 65.5726 34.386 145.886 15.6388 123.698Z" stroke="#1A5363" stroke-linejoin="round" stroke-miterlimit="10" fill="#00BFB2" fill-rule="evenodd"/></g></g><path d="M2808.55 632.599 2831.79 660.105 2762.75 772.637 2885.23 723.35 2907.6 749.827 2779.83 857.787 2761.08 835.6 2856.13 755.287 2736.98 807.076 2724.49 792.288 2794.58 682.434 2699.52 762.747 2680.78 740.56Z" stroke="#1A5363" stroke-linejoin="round" stroke-miterlimit="10" fill="#00BFB2" fill-rule="evenodd"/><text fill="#000000" fill-opacity="0" font-family="Arial,Arial_MSFontService,sans-serif" font-size="225.188" x="2680.78" y="829.639">M</text><g clip-path="url(#clip39)" filter="url(#fx8)" transform="translate(2821 887)"><g clip-path="url(#clip40)"><path d="M174.948 15.0619 184.457 42.973 140.362 96.1335 207.735 111.304 217.254 139.243 124.878 116.536 60.4469 197.685 51.031 170.046 100.697 109.63 24.4819 92.1157 15.0806 64.5199 115.652 89.4562Z" stroke="#1A5363" stroke-linejoin="round" stroke-miterlimit="10" fill="#00BFB2" fill-rule="evenodd"/></g></g><path d="M2991.09 906.923 3000.6 934.834 2956.5 987.995 3023.87 1003.16 3033.39 1031.1 2941.02 1008.4 2876.59 1089.55 2867.17 1061.91 2916.84 1001.49 2840.62 983.977 2831.22 956.381 2931.79 981.318Z" stroke="#1A5363" stroke-linejoin="round" stroke-miterlimit="10" fill="#00BFB2" fill-rule="evenodd"/><text fill="#000000" fill-opacity="0" font-family="Arial,Arial_MSFontService,sans-serif" font-size="182.623" x="2831.22" y="1066.72">X</text><g clip-path="url(#clip41)" filter="url(#fx9)" transform="translate(1405 1425)"><g clip-path="url(#clip42)"><path d="M166.095 45.0327 101.631 44.3035 115.879 85.4869ZM196.467 22.1274 204.128 44.2712 65.609 161.293 56.557 135.13 95.4853 100.567 76.2678 45.0219 24.2986 41.8917 15.2614 15.7712Z" stroke="#1A5363" stroke-linejoin="round" stroke-miterlimit="10" fill="#1A5363" fill-rule="evenodd"/></g></g><path d="M1566.23 1465.17 1501.77 1464.44 1516.02 1505.63ZM1596.61 1442.27 1604.27 1464.41 1465.75 1581.43 1456.7 1555.27 1495.62 1520.71 1476.41 1465.16 1424.44 1462.03 1415.4 1435.91Z" stroke="#1A5363" stroke-linejoin="round" stroke-miterlimit="10" fill="#1A5363" fill-rule="evenodd"/><text fill="#000000" fill-opacity="0" font-family="Arial,Arial_MSFontService,sans-serif" font-size="145.522" x="1415.4" y="1563.24">A</text><g clip-path="url(#clip43)" filter="url(#fx10)" transform="translate(1533 1594)"><g clip-path="url(#clip44)"><path d="M147.113 15.3798 165.333 38.0022 52.893 128.562 107.705 196.618 88.8554 211.8 15.8228 121.121Z" stroke="#1A5363" stroke-linejoin="round" stroke-miterlimit="10" fill="#1A5363" fill-rule="evenodd"/></g></g><path d="M1675.25 1604.52 1693.47 1627.14 1581.03 1717.7 1635.84 1785.76 1616.99 1800.94 1543.96 1710.26Z" stroke="#1A5363" stroke-linejoin="round" stroke-miterlimit="10" fill="#1A5363" fill-rule="evenodd"/><text fill="#000000" fill-opacity="0" font-family="Arial,Arial_MSFontService,sans-serif" font-size="196.42" x="1543.96" y="1776.39">L</text><g clip-path="url(#clip45)" filter="url(#fx11)" transform="translate(1719 1742)"><g clip-path="url(#clip46)"><path d="M105.076 15.7246 199.628 75.1549 186.748 95.6469 116.789 51.6742 93.276 89.0826 158.417 130.026 145.537 150.518 80.396 109.574 52.8396 153.416 126.823 199.918 113.943 220.41 15.3667 158.451Z" stroke="#1A5363" stroke-linejoin="round" stroke-miterlimit="10" fill="#1A5363" fill-rule="evenodd"/></g></g><path d="M1819.21 1752.86 1913.77 1812.29 1900.89 1832.79 1830.93 1788.81 1807.41 1826.22 1872.56 1867.17 1859.68 1887.66 1794.53 1846.71 1766.98 1890.55 1840.96 1937.06 1828.08 1957.55 1729.51 1895.59Z" stroke="#1A5363" stroke-linejoin="round" stroke-miterlimit="10" fill="#1A5363" fill-rule="evenodd"/><text fill="#000000" fill-opacity="0" font-family="Arial,Arial_MSFontService,sans-serif" font-size="204.685" x="1729.51" y="1931.96">E</text><g clip-path="url(#clip47)" filter="url(#fx12)" transform="translate(1968 1839)"><g clip-path="url(#clip48)"><path d="M73.9327 45.7526 63.4432 94.5126 115.385 105.687C120.594 106.807 125.602 105.815 130.409 102.71 135.024 99.7288 138.293 93.769 140.216 84.8309 141.901 76.9978 141.001 70.384 137.517 64.9895 133.987 60.5247 129.179 57.6375 123.092 56.328ZM50.6253 15.9813 132.829 33.6653C146.167 36.5347 156.144 43.0831 162.758 53.3108 169.508 63.774 171.317 76.2863 168.185 90.8477 164.948 105.892 158.103 116.791 147.65 123.543 141.848 127.291 135.322 128.885 128.072 128.327L148.78 208.184 120.915 202.189 101.993 127.563 58.3529 118.175 43.846 185.61 15.4483 179.501Z" stroke="#1A5363" stroke-linejoin="round" stroke-miterlimit="10" fill="#1A5363" fill-rule="evenodd"/></g></g><path d="M2037.07 1879.89 2026.58 1928.65 2078.52 1939.83C2083.73 1940.95 2088.74 1939.95 2093.55 1936.85 2098.16 1933.87 2101.43 1927.91 2103.35 1918.97 2105.04 1911.14 2104.14 1904.52 2100.66 1899.13 2097.13 1894.66 2092.32 1891.78 2086.23 1890.47ZM2013.76 1850.12 2095.97 1867.8C2109.31 1870.67 2119.28 1877.22 2125.9 1887.45 2132.65 1897.91 2134.46 1910.42 2131.32 1924.99 2128.09 1940.03 2121.24 1950.93 2110.79 1957.68 2104.99 1961.43 2098.46 1963.02 2091.21 1962.47L2111.92 2042.32 2084.05 2036.33 2065.13 1961.7 2021.49 1952.31 2006.98 2019.75 1978.59 2013.64Z" stroke="#1A5363" stroke-linejoin="round" stroke-miterlimit="10" fill="#1A5363" fill-rule="evenodd"/><text fill="#000000" fill-opacity="0" font-family="Arial,Arial_MSFontService,sans-serif" font-size="192.203" x="1978.59" y="2018.3">R</text><g clip-path="url(#clip49)" filter="url(#fx13)" transform="translate(2219 1849)"><g clip-path="url(#clip50)"><path d="M15.182 34.386 149.831 15.6783 153.162 39.6516 99.5333 47.1027 119.222 188.814 90.451 192.811 70.7623 51.1 18.5128 58.3593Z" stroke="#1A5363" stroke-linejoin="round" stroke-miterlimit="10" fill="#1A5363" fill-rule="evenodd"/></g></g><path d="M2229.32 1878.52 2363.97 1859.82 2367.3 1883.79 2313.67 1891.24 2333.36 2032.95 2304.59 2036.95 2284.9 1895.24 2232.65 1902.5Z" stroke="#1A5363" stroke-linejoin="round" stroke-miterlimit="10" fill="#1A5363" fill-rule="evenodd"/><text fill="#000000" fill-opacity="0" font-family="Arial,Arial_MSFontService,sans-serif" font-size="177.133" x="2229.32" y="2014.81">T</text><g clip-path="url(#clip51)" filter="url(#fx14)" transform="translate(2487 1779)"><g clip-path="url(#clip52)"><path d="M42.8146 53.116 52.3494 116.876 90.7417 96.2574ZM15.3695 26.7743 36.0126 15.6881 173.58 133.828 149.189 146.927 108.874 113.993 57.0931 141.801 62.2697 193.607 37.9193 206.684Z" stroke="#1A5363" stroke-linejoin="round" stroke-miterlimit="10" fill="#1A5363" fill-rule="evenodd"/></g></g><path d="M2524.95 1827.25 2534.49 1891.01 2572.88 1870.4ZM2497.51 1800.91 2518.15 1789.83 2655.72 1907.97 2631.33 1921.07 2591.01 1888.13 2539.23 1915.94 2544.41 1967.75 2520.06 1980.82Z" stroke="#1A5363" stroke-linejoin="round" stroke-miterlimit="10" fill="#1A5363" fill-rule="evenodd"/><text fill="#000000" fill-opacity="0" font-family="Arial,Arial_MSFontService,sans-serif" font-size="190.996" x="2497.51" y="1956.95">A</text><g clip-path="url(#clip53)" filter="url(#fx15)" transform="translate(2633 1575)"><g clip-path="url(#clip54)"><path d="M15.0981 132.675 38.3423 105.171 160.813 154.471 91.7871 41.9325 114.162 15.4578 241.922 123.432 223.173 145.618 128.13 65.2939 199.069 174.139 186.572 188.925 66.5656 138.14 161.609 218.464 142.859 240.649Z" stroke="#1A5363" stroke-linejoin="round" stroke-miterlimit="10" fill="#1A5363" fill-rule="evenodd"/></g></g><path d="M2643.24 1702.81 2666.48 1675.31 2788.95 1724.61 2719.93 1612.07 2742.3 1585.6 2870.06 1693.57 2851.31 1715.76 2756.27 1635.43 2827.21 1744.28 2814.71 1759.06 2694.7 1708.28 2789.75 1788.6 2771 1810.79Z" stroke="#1A5363" stroke-linejoin="round" stroke-miterlimit="10" fill="#1A5363" fill-rule="evenodd"/><text fill="#000000" fill-opacity="0" font-family="Arial,Arial_MSFontService,sans-serif" font-size="225.191" x="2643.24" y="1782.64">M</text><g clip-path="url(#clip55)" filter="url(#fx16)" transform="translate(2776 1364)"><g clip-path="url(#clip56)"><path d="M15.1328 139.209 24.6434 111.298 92.0225 96.1184 47.9268 42.9692 57.4471 15.0302 116.743 89.4141 217.316 64.4847 207.898 92.123 131.677 109.647 181.344 170.052 171.941 197.647 107.515 116.494Z" stroke="#1A5363" stroke-linejoin="round" stroke-miterlimit="10" fill="#1A5363" fill-rule="evenodd"/></g></g><path d="M2786.27 1498.35 2795.78 1470.44 2863.16 1455.26 2819.07 1402.11 2828.59 1374.17 2887.88 1448.55 2988.45 1423.62 2979.04 1451.26 2902.82 1468.79 2952.48 1529.19 2943.08 1556.79 2878.65 1475.63Z" stroke="#1A5363" stroke-linejoin="round" stroke-miterlimit="10" fill="#1A5363" fill-rule="evenodd"/><text fill="#000000" fill-opacity="0" font-family="Arial,Arial_MSFontService,sans-serif" font-size="182.617" x="2786.27" y="1533.96">X</text><g clip-path="url(#clip57)"><g clip-path="url(#clip58)" filter="url(#fx17)" transform="translate(1577 615)"><g clip-path="url(#clip59)"><path d="M26.8002 623C26.8002 293.733 293.952 26.8099 623.5 26.8099 953.048 26.8099 1220.2 293.733 1220.2 623 1220.2 952.267 953.048 1219.19 623.5 1219.19 293.952 1219.19 26.8002 952.267 26.8002 623ZM44.9361 623C44.9361 942.25 303.968 1201.05 623.5 1201.05 943.032 1201.05 1202.06 942.25 1202.06 623 1202.06 303.749 943.032 44.9459 623.5 44.9459 303.968 44.9459 44.9361 303.749 44.9361 623Z" stroke="#1A5363" stroke-width="5" stroke-miterlimit="8" fill="#1A5363" fill-rule="evenodd"/></g></g></g><path d="M1615.5 1238C1615.5 915.19 1877.41 653.5 2200.5 653.5 2523.59 653.5 2785.5 915.19 2785.5 1238 2785.5 1560.81 2523.59 1822.5 2200.5 1822.5 1877.41 1822.5 1615.5 1560.81 1615.5 1238ZM1633.28 1238C1633.28 1550.99 1887.23 1804.72 2200.5 1804.72 2513.77 1804.72 2767.72 1550.99 2767.72 1238 2767.72 925.009 2513.77 671.28 2200.5 671.28 1887.23 671.28 1633.28 925.009 1633.28 1238Z" stroke="#1A5363" stroke-width="4.58333" stroke-miterlimit="8" fill="#1A5363" fill-rule="evenodd"/><g clip-path="url(#clip60)"><g clip-path="url(#clip61)" filter="url(#fx18)" transform="translate(1611 648)"><g clip-path="url(#clip62)"><path d="M26.4601 590C26.4601 278.76 278.542 26.45 589.5 26.45 900.458 26.45 1152.54 278.76 1152.54 590 1152.54 901.24 900.458 1153.55 589.5 1153.55 278.542 1153.55 26.4601 901.24 26.4601 590ZM43.5872 590C43.5872 891.781 288.001 1136.42 589.5 1136.42 890.999 1136.42 1135.41 891.781 1135.41 590 1135.41 288.219 890.999 43.5771 589.5 43.5771 288.001 43.5771 43.5872 288.219 43.5872 590Z" stroke="#1A5363" stroke-width="5" stroke-miterlimit="8" fill="#1A5363" fill-rule="evenodd"/></g></g></g><path d="M1648.5 1238C1648.5 932.863 1895.64 685.5 2200.5 685.5 2505.36 685.5 2752.5 932.863 2752.5 1238 2752.5 1543.14 2505.36 1790.5 2200.5 1790.5 1895.64 1790.5 1648.5 1543.14 1648.5 1238ZM1665.29 1238C1665.29 1533.86 1904.91 1773.71 2200.5 1773.71 2496.09 1773.71 2735.71 1533.86 2735.71 1238 2735.71 942.136 2496.09 702.291 2200.5 702.291 1904.91 702.291 1665.29 942.136 1665.29 1238Z" stroke="#1A5363" stroke-width="4.58333" stroke-miterlimit="8" fill="#1A5363" fill-rule="evenodd"/><g clip-path="url(#clip63)"><g clip-path="url(#clip64)" filter="url(#fx19)" transform="translate(1835 860)"><g clip-path="url(#clip65)"><path d="M26.8065 27.3398 704.086 239.5 26.8065 451.66Z" stroke="#1A5363" stroke-width="5" stroke-miterlimit="8" fill="#1A5363" fill-rule="evenodd"/></g></g></g><path d="M1868.5 891.5 2532.5 1099.5 1868.5 1307.5Z" stroke="#1A5363" stroke-width="4.58333" stroke-miterlimit="8" fill="#1A5363" fill-rule="evenodd"/><g clip-path="url(#clip66)"><g clip-path="url(#clip67)" filter="url(#fx20)" transform="translate(1830 1137)"><g clip-path="url(#clip68)"><path d="M0 677.28 212.16 0 424.32 677.28Z" stroke="#1A5363" stroke-width="5" stroke-miterlimit="8" fill="#1A5363" fill-rule="evenodd" transform="matrix(1.83697e-16 1 1 -1.83697e-16 31.9137 27.3401)"/></g></g></g><path d="M0 664 208 0 416 664Z" stroke="#1A5363" stroke-width="4.58333" stroke-miterlimit="8" fill="#1A5363" fill-rule="evenodd" transform="matrix(1.83697e-16 1 1 -1.83697e-16 1868.5 1168.5)"/></g></svg>